<svg width="200" height="193" viewBox="0 0 200 193" fill="none" xmlns="http://www.w3.org/2000/svg">
<g clip-path="url(#clip0_88_32)">
<path d="M79.1667 52.0563V76.0823H54.1667V52.0563H79.1667ZM91.6667 40.0433H41.6667V88.0953H91.6667V40.0433ZM79.1667 116.126V140.152H54.1667V116.126H79.1667ZM91.6667 104.113H41.6667V152.165H91.6667V104.113ZM145.833 52.0563V76.0823H120.833V52.0563H145.833ZM158.333 40.0433H108.333V88.0953H158.333V40.0433ZM108.333 104.113H120.833V116.126H108.333V104.113ZM120.833 116.126H133.333V128.139H120.833V116.126ZM133.333 104.113H145.833V116.126H133.333V104.113ZM108.333 128.139H120.833V140.152H108.333V128.139ZM120.833 140.152H133.333V152.165H120.833V140.152ZM133.333 128.139H145.833V140.152H133.333V128.139ZM145.833 116.126H158.333V128.139H145.833V116.126ZM145.833 140.152H158.333V152.165H145.833V140.152ZM183.333 56.0606H166.667V32.0347H141.667V16.0173H183.333V56.0606ZM183.333 176.191V136.147H166.667V160.173H141.667V176.191H183.333ZM16.6667 176.191H58.3333V160.173H33.3333V136.147H16.6667V176.191ZM16.6667 16.0173V56.0606H33.3333V32.0347H58.3333V16.0173H16.6667Z" fill="black"/>
</g>
<defs>
<clipPath id="clip0_88_32">
<rect width="200" height="192.208" fill="white"/>
</clipPath>
</defs>
</svg>
