<svg width="75" height="75" viewBox="0 0 75 75" fill="none" xmlns="http://www.w3.org/2000/svg">
<g clip-path="url(#clip0_17_86)">
<path d="M37.4688 6.25C20.2187 6.25 6.25 20.25 6.25 37.5C6.25 54.75 20.2187 68.75 37.4688 68.75C54.75 68.75 68.75 54.75 68.75 37.5C68.75 20.25 54.75 6.25 37.4688 6.25ZM26.5625 25C29.1562 25 31.25 27.0938 31.25 29.6875C31.25 32.2812 29.1562 34.375 26.5625 34.375C23.9688 34.375 21.875 32.2812 21.875 29.6875C21.875 27.0938 23.9688 25 26.5625 25ZM37.5 56.25C30.375 56.25 24.3125 51.0625 21.875 43.75H53.125C50.6875 51.0625 44.625 56.25 37.5 56.25ZM48.4375 34.375C45.8438 34.375 43.75 32.2812 43.75 29.6875C43.75 27.0938 45.8438 25 48.4375 25C51.0312 25 53.125 27.0938 53.125 29.6875C53.125 32.2812 51.0312 34.375 48.4375 34.375Z" fill="black"/>
</g>
<defs>
<clipPath id="clip0_17_86">
<rect width="75" height="75" fill="white"/>
</clipPath>
</defs>
</svg>
