<svg width="37" height="41" viewBox="0 0 37 41" fill="none" xmlns="http://www.w3.org/2000/svg">
<path d="M25.4375 0H4.625C2.08125 0 0 1.845 0 4.1V36.9C0 39.155 2.08125 41 4.625 41H32.375C34.9188 41 37 39.155 37 36.9V10.25L25.4375 0ZM4.625 36.9V4.1H23.125V12.3H32.375V36.9H4.625ZM27.75 16.4V26.65C27.75 31.1805 23.6106 34.85 18.5 34.85C13.3894 34.85 9.25 31.1805 9.25 26.65V13.325C9.25 10.3115 12.1638 7.913 15.6325 8.2205C18.6388 8.487 20.8125 10.9265 20.8125 13.612V26.65H16.1875V13.325C16.1875 12.751 15.6787 12.3 15.0312 12.3C14.3838 12.3 13.875 12.751 13.875 13.325V26.65C13.875 28.905 15.9562 30.75 18.5 30.75C21.0438 30.75 23.125 28.905 23.125 26.65V16.4H27.75Z" fill="black"/>
</svg>
