<svg width="77" height="74" viewBox="0 0 77 74" fill="none" xmlns="http://www.w3.org/2000/svg">
<g clip-path="url(#clip0_26_178)">
<path d="M30.4791 20.0417V29.2917H20.8541V20.0417H30.4791ZM35.2916 15.4167H16.0416V33.9167H35.2916V15.4167ZM30.4791 44.7084V53.9584H20.8541V44.7084H30.4791ZM35.2916 40.0834H16.0416V58.5834H35.2916V40.0834ZM56.1458 20.0417V29.2917H46.5208V20.0417H56.1458ZM60.9583 15.4167H41.7083V33.9167H60.9583V15.4167ZM41.7083 40.0834H46.5208V44.7084H41.7083V40.0834ZM46.5208 44.7084H51.3333V49.3334H46.5208V44.7084ZM51.3333 40.0834H56.1458V44.7084H51.3333V40.0834ZM41.7083 49.3334H46.5208V53.9584H41.7083V49.3334ZM46.5208 53.9584H51.3333V58.5834H46.5208V53.9584ZM51.3333 49.3334H56.1458V53.9584H51.3333V49.3334ZM56.1458 44.7084H60.9583V49.3334H56.1458V44.7084ZM56.1458 53.9584H60.9583V58.5834H56.1458V53.9584ZM70.5833 21.5834H64.1666V12.3334H54.5416V6.16669H70.5833V21.5834ZM70.5833 67.8334V52.4167H64.1666V61.6667H54.5416V67.8334H70.5833ZM6.41663 67.8334H22.4583V61.6667H12.8333V52.4167H6.41663V67.8334ZM6.41663 6.16669V21.5834H12.8333V12.3334H22.4583V6.16669H6.41663Z" fill="black"/>
</g>
<defs>
<clipPath id="clip0_26_178">
<rect width="77" height="74" fill="white"/>
</clipPath>
</defs>
</svg>
